<mxfile host="app.diagrams.net" agent="Mozilla/5.0 (Windows NT 10.0; Win64; x64) AppleWebKit/537.36 (KHTML, like Gecko) Chrome/133.0.0.0 Safari/537.36" version="26.0.16">
  <diagram name="PÃ¡gina-1" id="8zsU1Mj8rOwMPHvYCnOH">
    <mxGraphModel dx="794" dy="547" grid="1" gridSize="10" guides="1" tooltips="1" connect="1" arrows="1" fold="1" page="1" pageScale="1" pageWidth="827" pageHeight="1169" math="0" shadow="0">
      <root>
        <mxCell id="0" />
        <mxCell id="1" parent="0" />
        <mxCell id="yxhdxbHOSNf92QCI8XO2-1" value="clientes" style="swimlane;fontStyle=0;childLayout=stackLayout;horizontal=1;startSize=26;fillColor=#dae8fc;horizontalStack=0;resizeParent=1;resizeParentMax=0;resizeLast=0;collapsible=1;marginBottom=0;whiteSpace=wrap;html=1;gradientColor=#7ea6e0;strokeColor=#6c8ebf;" vertex="1" parent="1">
          <mxGeometry x="90" y="220" width="140" height="104" as="geometry" />
        </mxCell>
        <mxCell id="yxhdxbHOSNf92QCI8XO2-2" value="nome" style="text;strokeColor=none;fillColor=none;align=left;verticalAlign=top;spacingLeft=4;spacingRight=4;overflow=hidden;rotatable=0;points=[[0,0.5],[1,0.5]];portConstraint=eastwest;whiteSpace=wrap;html=1;" vertex="1" parent="yxhdxbHOSNf92QCI8XO2-1">
          <mxGeometry y="26" width="140" height="26" as="geometry" />
        </mxCell>
        <mxCell id="yxhdxbHOSNf92QCI8XO2-3" value="e-mail" style="text;strokeColor=none;fillColor=none;align=left;verticalAlign=top;spacingLeft=4;spacingRight=4;overflow=hidden;rotatable=0;points=[[0,0.5],[1,0.5]];portConstraint=eastwest;whiteSpace=wrap;html=1;" vertex="1" parent="yxhdxbHOSNf92QCI8XO2-1">
          <mxGeometry y="52" width="140" height="26" as="geometry" />
        </mxCell>
        <mxCell id="yxhdxbHOSNf92QCI8XO2-4" value="id_cliente" style="text;strokeColor=none;fillColor=none;align=left;verticalAlign=top;spacingLeft=4;spacingRight=4;overflow=hidden;rotatable=0;points=[[0,0.5],[1,0.5]];portConstraint=eastwest;whiteSpace=wrap;html=1;" vertex="1" parent="yxhdxbHOSNf92QCI8XO2-1">
          <mxGeometry y="78" width="140" height="26" as="geometry" />
        </mxCell>
        <mxCell id="yxhdxbHOSNf92QCI8XO2-5" value="pedidos" style="swimlane;fontStyle=0;childLayout=stackLayout;horizontal=1;startSize=26;fillColor=#dae8fc;horizontalStack=0;resizeParent=1;resizeParentMax=0;resizeLast=0;collapsible=1;marginBottom=0;whiteSpace=wrap;html=1;strokeColor=#6c8ebf;gradientColor=#7ea6e0;" vertex="1" parent="1">
          <mxGeometry x="330" y="220" width="140" height="130" as="geometry" />
        </mxCell>
        <mxCell id="yxhdxbHOSNf92QCI8XO2-6" value="id_pedido" style="text;strokeColor=none;fillColor=none;align=left;verticalAlign=top;spacingLeft=4;spacingRight=4;overflow=hidden;rotatable=0;points=[[0,0.5],[1,0.5]];portConstraint=eastwest;whiteSpace=wrap;html=1;" vertex="1" parent="yxhdxbHOSNf92QCI8XO2-5">
          <mxGeometry y="26" width="140" height="26" as="geometry" />
        </mxCell>
        <mxCell id="yxhdxbHOSNf92QCI8XO2-7" value="id_cliente" style="text;strokeColor=none;fillColor=none;align=left;verticalAlign=top;spacingLeft=4;spacingRight=4;overflow=hidden;rotatable=0;points=[[0,0.5],[1,0.5]];portConstraint=eastwest;whiteSpace=wrap;html=1;" vertex="1" parent="yxhdxbHOSNf92QCI8XO2-5">
          <mxGeometry y="52" width="140" height="26" as="geometry" />
        </mxCell>
        <mxCell id="yxhdxbHOSNf92QCI8XO2-8" value="id_produto" style="text;strokeColor=none;fillColor=none;align=left;verticalAlign=top;spacingLeft=4;spacingRight=4;overflow=hidden;rotatable=0;points=[[0,0.5],[1,0.5]];portConstraint=eastwest;whiteSpace=wrap;html=1;" vertex="1" parent="yxhdxbHOSNf92QCI8XO2-5">
          <mxGeometry y="78" width="140" height="52" as="geometry" />
        </mxCell>
        <mxCell id="yxhdxbHOSNf92QCI8XO2-9" value="produtos" style="swimlane;fontStyle=0;childLayout=stackLayout;horizontal=1;startSize=26;fillColor=#dae8fc;horizontalStack=0;resizeParent=1;resizeParentMax=0;resizeLast=0;collapsible=1;marginBottom=0;whiteSpace=wrap;html=1;strokeColor=#6c8ebf;gradientColor=#7ea6e0;" vertex="1" parent="1">
          <mxGeometry x="560" y="220" width="140" height="130" as="geometry" />
        </mxCell>
        <mxCell id="yxhdxbHOSNf92QCI8XO2-10" value="id_produto" style="text;strokeColor=none;fillColor=none;align=left;verticalAlign=top;spacingLeft=4;spacingRight=4;overflow=hidden;rotatable=0;points=[[0,0.5],[1,0.5]];portConstraint=eastwest;whiteSpace=wrap;html=1;" vertex="1" parent="yxhdxbHOSNf92QCI8XO2-9">
          <mxGeometry y="26" width="140" height="26" as="geometry" />
        </mxCell>
        <mxCell id="yxhdxbHOSNf92QCI8XO2-11" value="marca" style="text;strokeColor=none;fillColor=none;align=left;verticalAlign=top;spacingLeft=4;spacingRight=4;overflow=hidden;rotatable=0;points=[[0,0.5],[1,0.5]];portConstraint=eastwest;whiteSpace=wrap;html=1;" vertex="1" parent="yxhdxbHOSNf92QCI8XO2-9">
          <mxGeometry y="52" width="140" height="26" as="geometry" />
        </mxCell>
        <mxCell id="yxhdxbHOSNf92QCI8XO2-12" value="valor" style="text;strokeColor=none;fillColor=none;align=left;verticalAlign=top;spacingLeft=4;spacingRight=4;overflow=hidden;rotatable=0;points=[[0,0.5],[1,0.5]];portConstraint=eastwest;whiteSpace=wrap;html=1;" vertex="1" parent="yxhdxbHOSNf92QCI8XO2-9">
          <mxGeometry y="78" width="140" height="52" as="geometry" />
        </mxCell>
        <mxCell id="yxhdxbHOSNf92QCI8XO2-14" value="data" style="text;strokeColor=none;fillColor=none;align=left;verticalAlign=top;spacingLeft=4;spacingRight=4;overflow=hidden;rotatable=0;points=[[0,0.5],[1,0.5]];portConstraint=eastwest;whiteSpace=wrap;html=1;" vertex="1" parent="1">
          <mxGeometry x="330" y="324" width="140" height="26" as="geometry" />
        </mxCell>
        <mxCell id="yxhdxbHOSNf92QCI8XO2-15" value="desc" style="text;strokeColor=none;fillColor=none;align=left;verticalAlign=top;spacingLeft=4;spacingRight=4;overflow=hidden;rotatable=0;points=[[0,0.5],[1,0.5]];portConstraint=eastwest;whiteSpace=wrap;html=1;" vertex="1" parent="1">
          <mxGeometry x="560" y="320" width="140" height="26" as="geometry" />
        </mxCell>
        <mxCell id="yxhdxbHOSNf92QCI8XO2-17" style="edgeStyle=orthogonalEdgeStyle;rounded=0;orthogonalLoop=1;jettySize=auto;html=1;exitX=1;exitY=0.5;exitDx=0;exitDy=0;" edge="1" parent="1" source="yxhdxbHOSNf92QCI8XO2-3">
          <mxGeometry relative="1" as="geometry">
            <mxPoint x="330" y="275" as="targetPoint" />
            <Array as="points">
              <mxPoint x="281" y="285" />
              <mxPoint x="281" y="275" />
            </Array>
          </mxGeometry>
        </mxCell>
        <mxCell id="yxhdxbHOSNf92QCI8XO2-18" style="edgeStyle=orthogonalEdgeStyle;rounded=0;orthogonalLoop=1;jettySize=auto;html=1;exitX=1;exitY=0.5;exitDx=0;exitDy=0;" edge="1" parent="1">
          <mxGeometry relative="1" as="geometry">
            <mxPoint x="560" y="270" as="targetPoint" />
            <mxPoint x="470" y="280" as="sourcePoint" />
            <Array as="points">
              <mxPoint x="521" y="280" />
              <mxPoint x="521" y="270" />
            </Array>
          </mxGeometry>
        </mxCell>
        <mxCell id="yxhdxbHOSNf92QCI8XO2-19" value="&lt;h1 style=&quot;margin-top: 0px;&quot;&gt;Projeto Loja&lt;/h1&gt;&lt;p&gt;Diagrama UML&lt;/p&gt;&lt;p&gt;Desenvolvido por: Gustavo Macedo Rosa&lt;/p&gt;" style="text;html=1;whiteSpace=wrap;overflow=hidden;rounded=0;" vertex="1" parent="1">
          <mxGeometry x="40" y="30" width="180" height="120" as="geometry" />
        </mxCell>
      </root>
    </mxGraphModel>
  </diagram>
</mxfile>
